<svg width="350" height="55" viewBox="0 0 350 55" fill="none" xmlns="http://www.w3.org/2000/svg">
<rect width="350" height="55" rx="27.5" fill="#CFD2E1"/>
<path d="M87.464 20.576C85.616 20.576 84.2 21.14 83.216 22.268C82.232 23.396 81.74 24.992 81.74 27.056C81.74 29.144 82.28 30.752 83.36 31.88C84.464 33.008 85.94 33.572 87.788 33.572C88.772 33.572 89.6 33.44 90.272 33.176C90.968 32.912 91.628 32.612 92.252 32.276C92.66 32.612 92.972 33.02 93.188 33.5C93.428 33.956 93.548 34.496 93.548 35.12C93.548 36.104 92.996 36.944 91.892 37.64C90.812 38.312 89.156 38.648 86.924 38.648C85.316 38.648 83.804 38.42 82.388 37.964C80.972 37.508 79.736 36.812 78.68 35.876C77.624 34.916 76.784 33.716 76.16 32.276C75.56 30.812 75.26 29.072 75.26 27.056C75.26 25.184 75.548 23.54 76.124 22.124C76.724 20.684 77.528 19.472 78.536 18.488C79.568 17.504 80.768 16.76 82.136 16.256C83.504 15.752 84.968 15.5 86.528 15.5C88.736 15.5 90.44 15.86 91.64 16.58C92.864 17.3 93.476 18.224 93.476 19.352C93.476 19.976 93.32 20.516 93.008 20.972C92.696 21.428 92.336 21.788 91.928 22.052C91.304 21.644 90.632 21.296 89.912 21.008C89.216 20.72 88.4 20.576 87.464 20.576ZM102.078 16.832C102.486 16.592 103.098 16.364 103.914 16.148C104.754 15.932 105.594 15.824 106.434 15.824C107.634 15.824 108.69 16.004 109.602 16.364C110.538 16.7 111.138 17.24 111.402 17.984C111.834 19.232 112.302 20.684 112.806 22.34C113.31 23.996 113.814 25.712 114.318 27.488C114.822 29.24 115.314 30.98 115.794 32.708C116.274 34.412 116.694 35.924 117.054 37.244C116.766 37.58 116.334 37.844 115.758 38.036C115.182 38.252 114.498 38.36 113.706 38.36C113.13 38.36 112.638 38.312 112.23 38.216C111.846 38.12 111.522 37.976 111.258 37.784C111.018 37.592 110.814 37.34 110.646 37.028C110.502 36.716 110.37 36.356 110.25 35.948L109.602 33.464H103.086C102.894 34.184 102.702 34.928 102.51 35.696C102.318 36.464 102.126 37.208 101.934 37.928C101.598 38.048 101.238 38.144 100.854 38.216C100.494 38.312 100.05 38.36 99.5218 38.36C98.2978 38.36 97.3858 38.156 96.7858 37.748C96.2098 37.316 95.9218 36.728 95.9218 35.984C95.9218 35.648 95.9698 35.312 96.0658 34.976C96.1618 34.64 96.2698 34.244 96.3898 33.788C96.5578 33.14 96.7858 32.336 97.0738 31.376C97.3858 30.416 97.7218 29.384 98.0818 28.28C98.4418 27.152 98.8258 26 99.2338 24.824C99.6418 23.648 100.026 22.544 100.386 21.512C100.746 20.456 101.07 19.52 101.358 18.704C101.67 17.888 101.91 17.264 102.078 16.832ZM106.398 21.476C106.062 22.484 105.678 23.612 105.246 24.86C104.838 26.084 104.466 27.332 104.13 28.604H108.594C108.258 27.308 107.91 26.048 107.55 24.824C107.214 23.576 106.902 22.46 106.614 21.476H106.398ZM126.268 30.944V37.856C126.004 37.928 125.584 38 125.008 38.072C124.456 38.144 123.904 38.18 123.352 38.18C122.8 38.18 122.308 38.132 121.876 38.036C121.468 37.964 121.12 37.82 120.832 37.604C120.568 37.388 120.364 37.088 120.22 36.704C120.076 36.32 120.004 35.816 120.004 35.192V18.236C120.004 17.732 120.136 17.348 120.4 17.084C120.688 16.796 121.072 16.568 121.552 16.4C122.368 16.112 123.316 15.908 124.396 15.788C125.476 15.644 126.628 15.572 127.852 15.572C131.164 15.572 133.66 16.268 135.34 17.66C137.02 19.052 137.86 20.936 137.86 23.312C137.86 24.8 137.476 26.072 136.708 27.128C135.94 28.184 135.028 29 133.972 29.576C134.836 30.752 135.688 31.856 136.528 32.888C137.368 33.92 138.028 34.856 138.508 35.696C138.268 36.536 137.824 37.184 137.176 37.64C136.552 38.072 135.844 38.288 135.052 38.288C134.524 38.288 134.068 38.228 133.684 38.108C133.3 37.988 132.964 37.82 132.676 37.604C132.388 37.388 132.124 37.124 131.884 36.812C131.644 36.5 131.416 36.164 131.2 35.804L128.176 30.944H126.268ZM128.536 26.156C129.448 26.156 130.168 25.928 130.696 25.472C131.224 24.992 131.488 24.296 131.488 23.384C131.488 22.472 131.188 21.788 130.588 21.332C130.012 20.852 129.088 20.612 127.816 20.612C127.456 20.612 127.168 20.624 126.952 20.648C126.736 20.672 126.496 20.708 126.232 20.756V26.156H128.536ZM155.413 30.944V37.856C155.149 37.928 154.729 38 154.153 38.072C153.601 38.144 153.049 38.18 152.497 38.18C151.945 38.18 151.453 38.132 151.021 38.036C150.613 37.964 150.265 37.82 149.977 37.604C149.713 37.388 149.509 37.088 149.365 36.704C149.221 36.32 149.149 35.816 149.149 35.192V18.236C149.149 17.732 149.281 17.348 149.545 17.084C149.833 16.796 150.217 16.568 150.697 16.4C151.513 16.112 152.461 15.908 153.541 15.788C154.621 15.644 155.773 15.572 156.997 15.572C160.309 15.572 162.805 16.268 164.485 17.66C166.165 19.052 167.005 20.936 167.005 23.312C167.005 24.8 166.621 26.072 165.853 27.128C165.085 28.184 164.173 29 163.117 29.576C163.981 30.752 164.833 31.856 165.673 32.888C166.513 33.92 167.173 34.856 167.653 35.696C167.413 36.536 166.969 37.184 166.321 37.64C165.697 38.072 164.989 38.288 164.197 38.288C163.669 38.288 163.213 38.228 162.829 38.108C162.445 37.988 162.109 37.82 161.821 37.604C161.533 37.388 161.269 37.124 161.029 36.812C160.789 36.5 160.561 36.164 160.345 35.804L157.321 30.944H155.413ZM157.681 26.156C158.593 26.156 159.313 25.928 159.841 25.472C160.369 24.992 160.633 24.296 160.633 23.384C160.633 22.472 160.333 21.788 159.733 21.332C159.157 20.852 158.233 20.612 156.961 20.612C156.601 20.612 156.313 20.624 156.097 20.648C155.881 20.672 155.641 20.708 155.377 20.756V26.156H157.681ZM171.086 19.532C171.086 18.5 171.386 17.684 171.986 17.084C172.586 16.484 173.402 16.184 174.434 16.184H186.314C186.482 16.448 186.626 16.796 186.746 17.228C186.89 17.66 186.962 18.116 186.962 18.596C186.962 19.508 186.758 20.156 186.35 20.54C185.966 20.924 185.45 21.116 184.802 21.116H177.206V24.464H185.306C185.474 24.728 185.618 25.076 185.738 25.508C185.882 25.916 185.954 26.36 185.954 26.84C185.954 27.752 185.762 28.4 185.378 28.784C184.994 29.168 184.478 29.36 183.83 29.36H177.206V33.14H186.458C186.626 33.404 186.77 33.752 186.89 34.184C187.034 34.616 187.106 35.072 187.106 35.552C187.106 36.464 186.902 37.124 186.494 37.532C186.11 37.916 185.594 38.108 184.946 38.108H174.434C173.402 38.108 172.586 37.808 171.986 37.208C171.386 36.608 171.086 35.792 171.086 34.76V19.532ZM210.573 37.244C210.237 37.58 209.745 37.832 209.097 38C208.473 38.192 207.717 38.288 206.829 38.288C205.941 38.288 205.101 38.156 204.309 37.892C203.517 37.628 202.869 36.992 202.365 35.984L198.801 28.712C198.441 27.968 198.117 27.272 197.829 26.624C197.541 25.952 197.229 25.184 196.893 24.32L196.677 24.356C196.773 25.652 196.821 26.972 196.821 28.316C196.845 29.66 196.857 30.98 196.857 32.276V37.856C196.593 37.928 196.185 38 195.633 38.072C195.105 38.144 194.577 38.18 194.049 38.18C193.521 38.18 193.053 38.144 192.645 38.072C192.237 38 191.901 37.856 191.637 37.64C191.373 37.424 191.169 37.136 191.025 36.776C190.881 36.392 190.809 35.9 190.809 35.3V17.3C191.145 16.82 191.661 16.46 192.357 16.22C193.053 15.98 193.797 15.86 194.589 15.86C195.477 15.86 196.317 16.004 197.109 16.292C197.925 16.556 198.573 17.18 199.053 18.164L202.653 25.436C203.013 26.18 203.337 26.888 203.625 27.56C203.913 28.208 204.225 28.964 204.561 29.828L204.741 29.792C204.645 28.496 204.585 27.2 204.561 25.904C204.537 24.608 204.525 23.312 204.525 22.016V16.184C204.789 16.112 205.185 16.04 205.713 15.968C206.265 15.896 206.805 15.86 207.333 15.86C208.389 15.86 209.193 16.052 209.745 16.436C210.297 16.796 210.573 17.564 210.573 18.74V37.244ZM214.234 21.224C214.066 20.96 213.91 20.6 213.766 20.144C213.622 19.688 213.55 19.208 213.55 18.704C213.55 17.768 213.754 17.096 214.162 16.688C214.594 16.28 215.146 16.076 215.818 16.076H231.514C231.682 16.34 231.838 16.7 231.982 17.156C232.126 17.612 232.198 18.092 232.198 18.596C232.198 19.532 231.982 20.204 231.55 20.612C231.142 21.02 230.602 21.224 229.93 21.224H225.934V37.856C225.67 37.928 225.25 38 224.674 38.072C224.122 38.144 223.57 38.18 223.018 38.18C222.466 38.18 221.974 38.132 221.542 38.036C221.134 37.964 220.786 37.82 220.498 37.604C220.21 37.388 219.994 37.088 219.85 36.704C219.706 36.32 219.634 35.816 219.634 35.192V21.224H214.234ZM238.449 16.832C238.857 16.592 239.469 16.364 240.285 16.148C241.125 15.932 241.965 15.824 242.805 15.824C244.005 15.824 245.061 16.004 245.973 16.364C246.909 16.7 247.509 17.24 247.773 17.984C248.205 19.232 248.673 20.684 249.177 22.34C249.681 23.996 250.185 25.712 250.689 27.488C251.193 29.24 251.685 30.98 252.165 32.708C252.645 34.412 253.065 35.924 253.425 37.244C253.137 37.58 252.705 37.844 252.129 38.036C251.553 38.252 250.869 38.36 250.077 38.36C249.501 38.36 249.009 38.312 248.601 38.216C248.217 38.12 247.893 37.976 247.629 37.784C247.389 37.592 247.185 37.34 247.017 37.028C246.873 36.716 246.741 36.356 246.621 35.948L245.973 33.464H239.457C239.265 34.184 239.073 34.928 238.881 35.696C238.689 36.464 238.497 37.208 238.305 37.928C237.969 38.048 237.609 38.144 237.225 38.216C236.865 38.312 236.421 38.36 235.893 38.36C234.669 38.36 233.757 38.156 233.157 37.748C232.581 37.316 232.293 36.728 232.293 35.984C232.293 35.648 232.341 35.312 232.437 34.976C232.533 34.64 232.641 34.244 232.761 33.788C232.929 33.14 233.157 32.336 233.445 31.376C233.757 30.416 234.093 29.384 234.453 28.28C234.813 27.152 235.197 26 235.605 24.824C236.013 23.648 236.397 22.544 236.757 21.512C237.117 20.456 237.441 19.52 237.729 18.704C238.041 17.888 238.281 17.264 238.449 16.832ZM242.769 21.476C242.433 22.484 242.049 23.612 241.617 24.86C241.209 26.084 240.837 27.332 240.501 28.604H244.965C244.629 27.308 244.281 26.048 243.921 24.824C243.585 23.576 243.273 22.46 242.985 21.476H242.769ZM259.723 38.108C258.691 38.108 257.875 37.808 257.275 37.208C256.675 36.608 256.375 35.792 256.375 34.76V16.148C256.639 16.1 257.059 16.04 257.635 15.968C258.211 15.872 258.763 15.824 259.291 15.824C259.843 15.824 260.323 15.872 260.731 15.968C261.163 16.04 261.523 16.184 261.811 16.4C262.099 16.616 262.315 16.916 262.459 17.3C262.603 17.684 262.675 18.188 262.675 18.812V33.032H270.919C271.087 33.296 271.243 33.656 271.387 34.112C271.531 34.544 271.603 35 271.603 35.48C271.603 36.44 271.399 37.124 270.991 37.532C270.583 37.916 270.043 38.108 269.371 38.108H259.723Z" fill="#54478C"/>
</svg>
